<svg height="569.575" viewBox="0 0 470.625 569.575" width="470.625" xmlns="http://www.w3.org/2000/svg" xmlns:xlink="http://www.w3.org/1999/xlink"><linearGradient id="a" gradientUnits="userSpaceOnUse" x1="568.553" x2="21.886" y1="59.273" y2="604.607"><stop offset=".44" stop-color="#c8ff00"/><stop offset=".577" stop-color="#65c400"/></linearGradient><linearGradient id="b" gradientUnits="userSpaceOnUse" x1="-102.218" x2="121.782" y1="148.989" y2="404.989"><stop offset="0" stop-color="#352acf"/><stop offset="1" stop-color="#232276"/></linearGradient><linearGradient id="c" x1="484.633" x2="283.3" xlink:href="#b" y1="314.946" y2="122.946"/><linearGradient id="d" gradientUnits="userSpaceOnUse" x1="307.89" x2="453.223" y1="114.637" y2="46.637"><stop offset=".289" stop-color="#030a24"/><stop offset=".577" stop-color="#232276"/></linearGradient><path d="m0 318.052.125 37.196 179.951 214.327 285.845-185.914v-35.598l-319.086-90.106z" fill="#c8ff00"/><path d="m188.777 511.7-4 14.667-4.701 43.208 285.845-185.914v-35.598l-319.086-90.106z" fill="url(#a)"/><path d="m49.744 342.549-11.008 17.685 144.511 172.117 282.674-184.288-116.192-94.541-91.824 45.15-68.716-9.213z" fill="#c8ff00"/><path d="m343.827 255.165 113.623 92.451-273.222 178.128-139.328-165.944 8.37-13.447 137.252-62.8 37.9 12.372 115.406-40.758" fill="#65c400"/><path d="m321.16 274.5 110.617 89.964-247.333 161.569-136.325-163.458-17.519 3.108 137.252-62.8 37.9 12.371z" fill="#fff"/><path d="m216.162 242.183c-77.443 0-140.223 44.436-140.223 99.251s62.78 99.251 140.223 99.251 140.222-44.436 140.222-99.251-62.779-99.251-140.222-99.251zm0 131.992c-31.385 0-56.827-16.558-56.827-36.984s25.442-36.984 56.827-36.984 56.827 16.558 56.827 36.984-25.442 36.984-56.827 36.984z" fill="#65c400"/><path d="m216.162 300.207a82.819 82.819 0 0 1 24.086 3.485l6.669-59.108a196.656 196.656 0 0 0 -30.755-2.4c-35.353 0-67.646 9.264-92.31 24.545l40.174 55.743c8.744-13.101 28.792-22.265 52.136-22.265z" fill="#ff4a8b"/><path d="m75.939 331.434c0 54.815 62.78 99.251 140.223 99.251s140.222-44.436 140.222-99.251" fill="#c8ff00"/><path d="m216.162 290.207c-26.663 0-49.027 11.953-55.156 28.073l3.02 4.191c8.744-13.1 28.792-22.264 52.136-22.264a82.819 82.819 0 0 1 24.086 3.485l1.089-9.659a82.423 82.423 0 0 0 -25.175-3.826z" fill="#ff0068"/><path d="m159.335 337.191c0-7.441 3.389-14.364 9.2-20.165l-.074-.512-13.694-28.169-22.588 5.331-20.457 39.532 23.278 14.592 35.411 11.32c-6.96-6.137-11.076-13.72-11.076-21.929z" fill="#0b1a42"/><path d="m136.582 321.359a72.757 72.757 0 0 1 18.184-33.014l-53.618-69.083a172.851 172.851 0 0 0 -54.63 201.151l88.482-72.613a72.811 72.811 0 0 1 1.582-26.441z" fill="#352acf"/><path d="m170.406 359.12-87.564 75.571-36.324-14.278 88.477-72.613z" fill="url(#b)"/><path d="m280.89 11.98 60.821-11.98 80.635 42.852-64.508 15.666z" fill="#030a24"/><path d="m306.239 282.26 116.107-239.408-64.508 15.666-95.238 257.382.043.03c11.47-8.536 20.73-15.717 43.596-33.67z" fill="url(#c)"/><path d="m319.028 163.397 58.119-27.145 12.667-26.666-61.742 29.371z" fill="#ff0068"/><path d="m262.6 315.9 95.238-257.382-76.948-46.538-42.753 291.12c9.284 2.856 17.85 6.611 24.463 12.8z" fill="#352acf"/><path d="m324.264 149.246 33.574-90.728-76.948-46.538-14.53 97.845z" fill="#0b1a42"/><path d="m328.072 138.957-59.691-42.738-4.227 28.465 54.389 38.942.485-.229z" fill="#ff4a8b"/><path d="m366.862 199.075-25.945-2.598-73.26 111.72 9.425 25.797 100.693-85.083z" fill="#0b1a42"/><path d="m403.072 219.262 33.73 11.213-42.426 35.564-117.294 67.955 100.693-85.083z"/><path d="m316.005 234.467-53.4 81.428c6.531 6.022 10.38 13.365 10.38 21.3l69.779-58.7z" fill="#ff4a8b"/><path d="m342.768 278.491-69.779 58.7a24.823 24.823 0 0 1 -1.371 8.063l31.479-7.718 91.279-71.5z" fill="#ff0068"/><path d="m265.294 355.766h81.843l-8.738-42.8-66.321 30.794a30.1 30.1 0 0 1 -6.784 12.006z" fill="#0b1a42"/><path d="m380.255 305.085-14.385-4.878-27.471 12.756 8.738 42.803h34.606z" fill="#6da2ef"/><path d="m365.87 300.207 51.587-5.399 19.345 52.992-55.059 7.966z" fill="#352acf"/><path d="m340.917 196.477 36.858 52.434 59.027-18.436-35.466-43.664z" fill="#030a24"/><ellipse cx="216.814" cy="337.03" fill="#fff" rx="57.111" ry="37.556"/><path d="m390.814 108.586 31.532-65.734-64.508 15.666-29.024 78.734z" fill="url(#d)"/></svg>