<svg enable-background="new 0 0 343.419 281.165" height="282" viewBox="0 0 343.419 281.165" width="344" xmlns="http://www.w3.org/2000/svg" xmlns:xlink="http://www.w3.org/1999/xlink"><linearGradient id="a"><stop offset="0" stop-color="#c8ff00"/><stop offset=".1798" stop-color="#c3fc00"/><stop offset=".3921" stop-color="#b5f400"/><stop offset=".6207" stop-color="#9de500"/><stop offset=".8592" stop-color="#7cd200"/><stop offset="1" stop-color="#65c400"/></linearGradient><linearGradient id="b" gradientUnits="userSpaceOnUse" x1="64.7214" x2="269.4428" xlink:href="#a" y1="199.6345" y2="66.7792"/><linearGradient id="c" gradientUnits="userSpaceOnUse" x1="36.5288" x2="355.9816" xlink:href="#a" y1="246.634" y2="39.3231"/><linearGradient id="d" gradientUnits="userSpaceOnUse" x1="383.8906" x2="44.4341" y1="126.6305" y2="184.2169"><stop offset="0" stop-color="#65c400"/><stop offset="1" stop-color="#65c400"/></linearGradient><linearGradient id="e" gradientUnits="userSpaceOnUse" x1="175.8512" x2="302.8443" y1="315.8759" y2="251.3186"><stop offset="0" stop-color="#c8ff00"/><stop offset=".1458" stop-color="#b0f100"/><stop offset=".3813" stop-color="#8fdd00"/><stop offset=".6077" stop-color="#78cf00"/><stop offset=".819" stop-color="#6ac700"/><stop offset="1" stop-color="#65c400"/></linearGradient><linearGradient id="f" gradientUnits="userSpaceOnUse" x1="331.4643" x2="228.5237" y1="134.1307" y2="280.1192"><stop offset="0" stop-color="#c8ff00"/><stop offset=".0277" stop-color="#c4fc00"/><stop offset=".3149" stop-color="#9be400"/><stop offset=".5764" stop-color="#7dd300"/><stop offset=".801" stop-color="#6bc800"/><stop offset=".9626" stop-color="#65c400"/></linearGradient><linearGradient id="g" gradientUnits="userSpaceOnUse" x1="94.842" x2="168.9466" y1="74.5781" y2="54.1198"><stop offset="0" stop-color="#ff4a8b" stop-opacity=".1"/><stop offset="1" stop-color="#ff4a8b"/></linearGradient><linearGradient id="h" gradientUnits="userSpaceOnUse" x1="-42.0044" x2="24.3715" xlink:href="#a" y1="100.723" y2="91.6305"/><linearGradient id="i" gradientUnits="userSpaceOnUse" x1="189.7772" x2="183.867" y1="47.2966" y2="137.3132"><stop offset=".3815" stop-color="#ff4a8b" stop-opacity=".1"/><stop offset="1" stop-color="#ff4a8b"/></linearGradient><linearGradient id="j" gradientUnits="userSpaceOnUse" x1="373.374" x2="33.9175" xlink:href="#a" y1="91.7645" y2="149.3509"/><linearGradient id="k" gradientUnits="userSpaceOnUse" x1="261.3039" x2="143.1003" y1="-14.9464" y2="108.2581"><stop offset="0" stop-color="#ff4a8b"/><stop offset="1" stop-color="#ff4a8b" stop-opacity=".1"/></linearGradient><linearGradient id="l" gradientUnits="userSpaceOnUse" x1="-35.7968" x2="283.656" xlink:href="#a" y1="153.3681" y2="-53.9428"/><linearGradient id="m" gradientUnits="userSpaceOnUse" x1="32.6358" x2="237.3572" y1="258.3781" y2="125.5228"><stop offset="0" stop-color="#c8ff00"/><stop offset=".1139" stop-color="#c3fc00"/><stop offset=".2484" stop-color="#b5f400"/><stop offset=".3932" stop-color="#9de500"/><stop offset=".5443" stop-color="#7cd200"/><stop offset=".6335" stop-color="#65c400"/></linearGradient><linearGradient id="n" gradientUnits="userSpaceOnUse" x1="-27.7888" x2="38.5871" xlink:href="#a" y1="206.7982" y2="197.7056"/><linearGradient id="o" gradientUnits="userSpaceOnUse" x1="176.3613" x2="170.4511" xlink:href="#a" y1="181.8322" y2="271.3942"/><linearGradient id="p" gradientUnits="userSpaceOnUse" x1="68.7984" x2="62.8882" xlink:href="#a" y1="174.886" y2="264.4479"/><linearGradient id="q" gradientUnits="userSpaceOnUse" x1="46.9996" x2="366.4524" xlink:href="#a" y1="277.7604" y2="70.4495"/><linearGradient id="r" gradientUnits="userSpaceOnUse" x1="10.8368" x2="330.2896" xlink:href="#a" y1="231.1275" y2="23.8165"/><path d="m241.297 131.673-25.255 25.255v-102.123l25.255-25.254z" fill="url(#b)"/><path d="m241.297 29.551h102.122v102.122h-102.122z" fill="url(#c)"/><path d="m318.165 156.928h-102.123l25.255-25.255h102.122z" fill="url(#d)"/><path d="m230.537 255.911-25.254 25.254v-102.122l25.254-25.255z" fill="#65c400"/><path d="m307.405 281.165h-102.122l25.254-25.254h102.123z" fill="url(#e)"/><path d="m230.537 153.788h102.122v102.122h-102.122z" fill="url(#f)"/><path d="m146.914 102.122-25.254 25.255v-102.123l25.254-25.254z" fill="url(#g)"/><path d="m25.254 131.673-25.254 25.255v-102.123l25.254-25.254z" fill="url(#h)"/><path d="m223.783 127.377h-102.123l25.254-25.255h102.123z" fill="url(#i)"/><path d="m102.122 156.928h-102.122l25.254-25.255h102.123z" fill="url(#j)"/><path d="m146.914 0h102.122v102.122h-102.122z" fill="url(#k)"/><path d="m25.254 29.551h102.122v102.122h-102.122z" fill="url(#l)"/><path d="m133.276 239.696-25.255 25.254v-102.122l25.255-25.255z" fill="url(#m)"/><path d="m25.254 239.696-25.254 25.254v-102.122l25.254-25.255z" fill="url(#n)"/><path d="m210.144 264.95h-102.123l25.255-25.254h102.122z" fill="url(#o)"/><path d="m102.122 264.95h-102.122l25.254-25.254h102.123z" fill="url(#p)"/><path d="m133.276 137.573h102.122v102.122h-102.122z" fill="url(#q)"/><path d="m25.254 137.573h102.122v102.122h-102.122z" fill="url(#r)"/><g fill="#030a24"><ellipse cx="268.971" cy="269.64" rx="7.4" ry="3.332"/><ellipse cx="171.513" cy="253.211" rx="7.4" ry="3.332"/><ellipse cx="68.916" cy="253.211" rx="7.4" ry="3.332"/></g></svg>