<svg enable-background="new 0 0 421.388 198.858" height="199" viewBox="0 0 421.388 198.858" width="422" xmlns="http://www.w3.org/2000/svg" xmlns:xlink="http://www.w3.org/1999/xlink"><linearGradient id="a" gradientTransform="matrix(.1232 .9924 -.9924 .1232 -10279.2686 4653.7842)" gradientUnits="userSpaceOnUse" x1="-3195.5144" x2="-3191.9775" y1="-10948.374" y2="-10980.7109"><stop offset="0" stop-color="#fff"/><stop offset=".1577" stop-color="#f8ffdc"/><stop offset=".5082" stop-color="#e5ff84"/><stop offset="1" stop-color="#c8ff00"/></linearGradient><linearGradient id="b" gradientTransform="matrix(-.6011 -.7992 .7992 -.6011 -9656.6143 -11799.957)" gradientUnits="userSpaceOnUse" x1="-15488.585" x2="-15487.8271" y1="693.5395" y2="759.2237"><stop offset="0" stop-color="#65c400"/><stop offset=".3763" stop-color="#87d800"/><stop offset="1" stop-color="#c8ff00"/></linearGradient><linearGradient id="c" gradientUnits="userSpaceOnUse" x1="289.1941" x2="346.2888" y1="29.5407" y2="154.8459"><stop offset="0" stop-color="#6da2ef"/><stop offset=".1791" stop-color="#5c81db"/><stop offset=".4282" stop-color="#4759c3"/><stop offset=".6567" stop-color="#383db1"/><stop offset=".8547" stop-color="#2f2ba7"/><stop offset="1" stop-color="#2c25a3"/></linearGradient><linearGradient id="d" gradientUnits="userSpaceOnUse" x1="258.1784" x2="378.3003" y1="145.2147" y2="58.46"><stop offset="0" stop-color="#030a24"/><stop offset="1" stop-color="#2c25a3"/></linearGradient><linearGradient id="e" gradientUnits="userSpaceOnUse" x1="289.2357" x2="360.8266" y1="159.2376" y2="35.7236"><stop offset="0" stop-color="#ff4a8b"/><stop offset=".1595" stop-color="#d9438f"/><stop offset=".5725" stop-color="#7d339a"/><stop offset=".8619" stop-color="#4329a0"/><stop offset="1" stop-color="#2c25a3"/></linearGradient><radialGradient id="f" cx="216.4197" cy="31.048" gradientUnits="userSpaceOnUse" r="260.1305"><stop offset=".22" stop-color="#ff75a6"/><stop offset=".471" stop-color="#ca1864"/><stop offset=".677" stop-color="#5573d2"/></radialGradient><circle cx="221.815" cy="133.727" fill="#c8ff00" r="65.131"/><circle cx="137.815" cy="117.727" fill="#c8ff00" r="55.881"/><path d="m91.147 117.727c0 9.013 2.562 17.424 6.987 24.559l17.858-11.052c-2.434-3.924-3.843-8.55-3.843-13.506 0-14.175 11.491-25.665 25.665-25.665v-21.004c-25.773 0-46.667 20.894-46.667 46.668z" fill="#fff"/><path d="m97.973 142.974-.264-.425c-4.62-7.447-7.062-16.03-7.062-24.822 0-26.008 21.159-47.167 47.168-47.167h.5v22.002h-.5c-13.876 0-25.165 11.289-25.165 25.165 0 4.689 1.303 9.27 3.768 13.243l.264.426zm39.342-71.411c-25.229.268-45.668 20.874-45.668 46.164 0 8.438 2.298 16.68 6.651 23.869l17.01-10.526c-2.395-4.032-3.658-8.635-3.658-13.343 0-14.26 11.468-25.893 25.665-26.16z" fill="#fff"/><path d="m137.815 164.895c-16.435 0-31.427-8.354-40.105-22.346l-.264-.426 18.709-11.578.263.425c4.63 7.465 12.629 11.922 21.397 11.922 13.876 0 25.165-11.289 25.165-25.165s-11.289-25.165-25.165-25.165h-.5v-22.002h.5c26.009 0 47.168 21.159 47.168 47.167s-21.159 47.168-47.168 47.168zm-38.99-22.45c8.532 13.44 23.07 21.449 38.989 21.449 25.457 0 46.168-20.711 46.168-46.168 0-25.29-20.439-45.896-45.668-46.164v20.004c14.197.268 25.665 11.9 25.665 26.16 0 14.428-11.737 26.165-26.165 26.165-8.951 0-17.13-4.466-21.98-11.973z" fill="#fff"/><path d="m244.701 81.524c-7.074-3.102-14.436-4.643-21.706-4.791l-.137 14.253c5.401.13 10.867 1.284 16.122 3.587 21.624 9.481 31.468 34.696 21.988 56.321-3.538 8.071-9.27 14.498-16.187 18.895l7.282 12.25c9.388-5.867 17.173-14.519 21.954-25.423 12.64-28.833-.485-62.452-29.316-75.092z" fill="#c8ff00"/><path d="m251.894 182.733-7.791-13.107.409-.26c7.083-4.502 12.615-10.959 15.998-18.674 9.354-21.337-.395-46.307-21.731-55.661-5.063-2.221-10.424-3.414-15.932-3.546l-.493-.012.146-15.251.505.01c7.567.154 14.935 1.78 21.897 4.833 29.037 12.731 42.304 46.712 29.572 75.75-4.665 10.639-12.323 19.508-22.147 25.646zm-6.437-12.786 6.772 11.394c9.445-6.021 16.813-14.629 21.329-24.928 12.51-28.532-.525-61.922-29.059-74.432-6.686-2.932-13.752-4.524-21.01-4.736l-.125 13.255c5.465.193 10.784 1.408 15.817 3.615 21.842 9.576 31.82 35.137 22.245 56.979-3.397 7.748-8.914 14.258-15.969 18.853z" fill="#fff"/><path d="m182.66 116.561c7.177-16.37 23.372-25.98 40.199-25.575l.137-14.253c-22.359-.454-43.846 12.35-53.385 34.107-8.697 19.837-5.196 41.94 7.226 57.918l11.13-8.906c-9.224-11.973-11.804-28.474-5.307-43.291z" fill="#c8ff00"/><path d="m176.752 169.465-.311-.4c-12.978-16.693-15.771-39.08-7.289-58.426 9.371-21.375 30.493-34.859 53.853-34.406l.495.01-.146 15.255-.507-.012c-.348-.009-.694-.013-1.039-.013-16.808 0-31.916 9.837-38.69 25.289-6.2 14.142-4.19 30.536 5.245 42.784l.299.389zm45.064-92.244c-22.473 0-42.694 13.173-51.747 33.82-8.267 18.854-5.635 40.648 6.853 57.008l10.352-8.283c-9.402-12.494-11.353-29.079-5.071-43.406l.458.201-.458-.201c6.935-15.816 22.402-25.887 39.605-25.887.186 0 .371.001.557.004l.127-13.252c-.225-.003-.453-.004-.676-.004z" fill="#fff"/><path d="m204.647 172.881c-6.807-2.984-12.444-7.53-16.681-13.03l-11.13 8.906c5.632 7.244 13.096 13.229 22.09 17.173 17.927 7.86 37.702 5.753 53.137-3.892l-7.282-12.25c-11.617 7.383-26.58 9.035-40.134 3.093z" fill="#c8ff00"/><path d="m221.799 191.227c-7.833 0-15.688-1.601-23.074-4.839-8.75-3.837-16.455-9.827-22.283-17.323l-.303-.389 11.912-9.534.312.404c4.299 5.58 9.999 10.033 16.486 12.877 12.914 5.664 27.744 4.521 39.663-3.057l.436-.276 7.795 13.113-.415.259c-9.301 5.812-19.893 8.764-30.529 8.765zm-44.264-22.388c5.688 7.184 13.145 12.93 21.592 16.633 16.959 7.438 36.456 6.085 52.255-3.601l-6.77-11.388c-12.127 7.51-27.101 8.583-40.166 2.855-6.483-2.843-12.2-7.256-16.563-12.781z" fill="#fff"/><path d="m187.159 138.028c.646 5.202 2.411 9.988 5.014 14.161l5.146-3.206c-2.151-3.448-3.61-7.404-4.143-11.702-1.963-15.816 9.267-30.229 25.083-32.192 1.586-.197 3.156-.255 4.703-.195l.241-6.058c-1.871-.073-3.772-.002-5.691.236-19.138 2.376-32.728 19.817-30.353 38.956z" fill="#fff"/><path d="m222.962 104.895c13.877.536 25.723 11.049 27.489 25.279 1.963 15.816-9.267 30.229-25.083 32.192-11.517 1.429-22.285-4.142-28.048-13.381l-5.146 3.206c6.974 11.181 20.004 17.922 33.941 16.192 19.139-2.375 32.729-19.816 30.354-38.955-2.137-17.22-16.472-29.941-33.264-30.59z" fill="url(#a)"/><path d="m196.373 109.813-8.282-7.785c-10.594 11.245-14.684 26.896-11.504 41.547l11.108-2.419c-2.4-11.052.685-22.859 8.678-31.343z" fill="#fff"/><path d="m188.117 102.001 8.276 7.791c1.342-1.423 2.815-2.757 4.431-3.973 11.224-8.442 25.88-9.087 37.496-2.866l5.373-10.018c-15.398-8.246-34.826-7.392-49.704 3.799-2.142 1.612-4.093 3.381-5.872 5.267z" fill="#65c400"/><path d="m249.721 112.736c11.593 15.413 8.497 37.305-6.916 48.898s-37.305 8.497-48.898-6.916c-3.128-4.158-5.177-8.79-6.213-13.562l-11.108 2.419c1.373 6.326 4.089 12.465 8.235 17.977 15.367 20.43 44.387 24.535 64.817 9.167 20.43-15.367 24.535-44.387 9.167-64.817-4.177-5.553-9.366-9.889-15.113-12.966l-5.373 10.018c4.336 2.322 8.251 5.593 11.402 9.782z" fill="url(#b)"/><circle cx="317.682" cy="92.062" fill="url(#c)" r="71.346"/><path d="m317.113 20.109-2.944 24.443 2.944 5.103c24.501 0 44.362 19.862 44.362 44.362 0 24.501-19.988 42.46-44.488 42.46-19.294 0-34.958-10.978-40.926-27.366l-3.701-5.354-24.302 16.605c10.615 27.805 37.521 47.563 69.055 47.563 40.818 0 73.908-33.09 73.908-73.908s-33.089-73.908-73.908-73.908z" fill="url(#d)"/><path d="m314.169 15.006v29.546c24.501 0 44.362 19.862 44.362 44.362 0 24.501-19.862 44.362-44.362 44.362-19.294 0-35.702-12.32-41.809-29.519l-27.246 11.502c9.6 28.315 37.521 47.563 69.055 47.563 40.818 0 73.908-33.09 73.908-73.908s-33.089-73.908-73.908-73.908z" fill="url(#e)"/><path d="m236.147 81.83c0 7.636 1.842 20.506 1.842 20.506s2.396 3.757 2.842 4.926l26.302-11.104c-1.591-4.481-2.465-9.302-2.465-14.328 0-23.651 19.173-42.824 42.824-42.824v-28.522c-.627 0-2.842-4.926-2.842-4.926s-68.503 37.496-68.503 76.272z" fill="#ff0068"/><path d="m233.305 76.904c0 8.962 1.668 17.53 4.684 25.432l26.302-11.104c-1.591-4.481-2.465-9.302-2.465-14.328 0-23.651 19.173-42.824 42.824-42.824v-28.522c-39.403 0-71.345 31.943-71.345 71.346z" fill="url(#f)"/><g fill="#6da2ef"><circle cx="180.398" cy="35.406" r="2.526"/><circle cx="392.059" cy="3.385" r="2.526"/><path d="m252.283 59.976c-.256 0-.512-.098-.707-.293l-23.276-23.277h-47.901c-.553 0-1-.447-1-1s.447-1 1-1h48.315c.266 0 .52.105.707.293l23.569 23.569c.391.391.391 1.023 0 1.414-.195.196-.451.294-.707.294z"/><path d="m334.419 36.406c-.256 0-.512-.098-.707-.293-.391-.391-.391-1.023 0-1.414l32.021-32.021c.188-.188.441-.293.707-.293h25.619c.553 0 1 .447 1 1s-.447 1-1 1h-25.205l-31.728 31.729c-.195.195-.451.292-.707.292z"/><path d="m418.69 24.237h-30.794c-1.49 0-2.698-1.208-2.698-2.698v-8.067c0-1.49 1.208-2.698 2.698-2.698h30.794c1.49 0 2.698 1.208 2.698 2.698v8.067c0 1.49-1.208 2.698-2.698 2.698z"/><path d="m410.191 35.406h-23.27c-.952 0-1.723-.771-1.723-1.723v-3.995c0-.952.771-1.723 1.723-1.723h23.27c.952 0 1.723.771 1.723 1.723v3.995c0 .951-.772 1.723-1.723 1.723z"/><path d="m203.159 30.012h-28.276c-1.042 0-1.887-.845-1.887-1.887v-3.666c0-1.042.845-1.887 1.887-1.887h28.276c1.042 0 1.887.845 1.887 1.887v3.666c.001 1.042-.844 1.887-1.887 1.887z"/><path d="m184.836 18.726h-10.636c-.665 0-1.204-.539-1.204-1.204v-5.032c0-.665.539-1.204 1.204-1.204h10.636c.665 0 1.204.539 1.204 1.204v5.033c.001.664-.539 1.203-1.204 1.203z"/><path d="m184.836 7.441h-10.636c-.665 0-1.204-.539-1.204-1.204v-5.033c0-.665.539-1.204 1.204-1.204h10.636c.665 0 1.204.539 1.204 1.204v5.033c.001.665-.539 1.204-1.204 1.204z"/><circle cx="6.362" cy="108.719" r="2.526"/><path d="m102.559 109.719h-96.196c-.553 0-1-.447-1-1s.447-1 1-1h96.196c.553 0 1 .447 1 1s-.447 1-1 1z"/><path d="m30.164 115.088h-28.277c-1.042 0-1.887.845-1.887 1.887v3.666c0 1.042.845 1.887 1.887 1.887h28.276c1.042 0 1.887-.845 1.887-1.887v-3.666c.001-1.042-.844-1.887-1.886-1.887z"/><path d="m16.657 126.226h-15.24c-.783 0-1.417.635-1.417 1.417v4.606c0 .783.635 1.417 1.417 1.417h15.239c.783 0 1.417-.635 1.417-1.417v-4.606c.001-.782-.634-1.417-1.416-1.417z"/><path d="m9.053 137.365h-7.993c-.586 0-1.06.475-1.06 1.06v5.32c0 .586.475 1.06 1.06 1.06h7.992c.586 0 1.06-.475 1.06-1.06v-5.32c.001-.585-.474-1.06-1.059-1.06z"/></g></svg>