<svg height="1400.163" viewBox="0 0 1399.32 1400.163" width="1399.32" xmlns="http://www.w3.org/2000/svg"><g fill="#fff"><path d="m7.555 978.588a1 1 0 0 1 -1-1v-22.272a1 1 0 0 1 2 0v22.272a1 1 0 0 1 -1 1z"/><path d="m53.445 1052.231a1.5 1.5 0 0 1 -1.5-1.5v-38.077a1.5 1.5 0 0 1 3 0v38.077a1.5 1.5 0 0 1 -1.5 1.5z"/><path d="m123.846 1191.9a2 2 0 0 1 -2-2v-55.427a2 2 0 0 1 4 0v55.427a2 2 0 0 1 -2 2z"/><path d="m212.043 1299.736a3 3 0 0 1 -3-3v-50.845a3 3 0 0 1 6 0v50.845a3 3 0 0 1 -3 3z"/><path d="m336.784 1360.374a3 3 0 0 1 -3-3v-126.805a3 3 0 0 1 6 0v126.805a3 3 0 0 1 -3 3z"/><path d="m468.3 1400.163a3.5 3.5 0 0 1 -3.5-3.5v-192.311a3.5 3.5 0 0 1 7 0v192.311a3.5 3.5 0 0 1 -3.5 3.5z"/><path d="m526 1277.9a2.5 2.5 0 0 1 -2.5-2.5v-104.448a2.5 2.5 0 0 1 5 0v104.448a2.5 2.5 0 0 1 -2.5 2.5z"/><path d="m496.95 904.709a2 2 0 0 1 -2-2v-12.569a2 2 0 0 1 4 0v12.569a2 2 0 0 1 -2 2z"/><path d="m445.8 914.646a2 2 0 0 1 -2-2v-21.19a2 2 0 0 1 4 0v21.19a2 2 0 0 1 -2 2z"/><path d="m377.134 872.328a2 2 0 0 1 -2-2v-39.145a2 2 0 0 1 4 0v39.145a2 2 0 0 1 -2 2z"/><path d="m417.6 789.233a2 2 0 0 1 -2-2v-19.033a2 2 0 0 1 4 0v19.035a2 2 0 0 1 -2 1.998z"/><path d="m484.135 779.716a2 2 0 0 1 -2-2v-45.174a2 2 0 0 1 4 0v45.174a2 2 0 0 1 -2 2z"/><path d="m565.005 759.758a2 2 0 0 1 -2-2v-93.089a2 2 0 0 1 4 0v93.089a2 2 0 0 1 -2 2z"/><path d="m654.326 807.252a2 2 0 0 1 -2-2v-78.218a2 2 0 0 1 4 0v78.218a2 2 0 0 1 -2 2z"/><path d="m743.759 788.77a2 2 0 0 1 -2-2v-52.014a2 2 0 1 1 4 0v52.014a2 2 0 0 1 -2 2z"/><path d="m850.652 774.285a2 2 0 0 1 -2-2v-36.871a2 2 0 0 1 4 0v36.871a2 2 0 0 1 -2 2z"/><path d="m948.031 766.115a2 2 0 0 1 -2-2v-63.925a2 2 0 0 1 4 0v63.925a2 2 0 0 1 -2 2z"/><path d="m1024.873 738.881a2 2 0 0 1 -2-2v-36.691a2 2 0 0 1 4 0v36.691a2 2 0 0 1 -2 2z"/><path d="m1109.209 752.937a2 2 0 0 1 -2-2v-63.717a2 2 0 0 1 4 0v63.717a2 2 0 0 1 -2 2z"/><path d="m1195.279 711.252a2 2 0 0 1 -2-2v-46.9a2 2 0 0 1 4 0v46.9a2 2 0 0 1 -2 2z"/><path d="m1270.829 670.5a2 2 0 0 1 -2-2v-89.9a2 2 0 0 1 4 0v89.9a2 2 0 0 1 -2 2z"/><path d="m1345.1 606.451a2 2 0 0 1 -2-2v-73.022a2 2 0 1 1 4 0v73.022a2 2 0 0 1 -2 2z"/><path d="m1391.392 539.463a2 2 0 0 1 -2-2v-50.447a2 2 0 0 1 4 0v50.447a2 2 0 0 1 -2 2z"/><path d="m1362.087 411.137a1 1 0 0 1 -1-1v-38.587a1 1 0 1 1 2 0v38.587a1 1 0 0 1 -1 1z"/><path d="m1297.132 412.4a1 1 0 0 1 -1-1v-71.042a1 1 0 1 1 2 0v71.042a1 1 0 0 1 -1 1z"/><path d="m1214.755 418.463a1 1 0 0 1 -1-1v-39.915a1 1 0 0 1 2 0v39.915a1 1 0 0 1 -1 1z"/><path d="m1128.292 374.483a1 1 0 0 1 -1-1v-34.1a1 1 0 0 1 2 0v34.1a1 1 0 0 1 -1 1z"/><path d="m1058.618 363.293a1 1 0 0 1 -1-1v-99.866a1 1 0 0 1 2 0v99.866a1 1 0 0 1 -1 1z"/><path d="m1000.137 351.18a1 1 0 0 1 -1-1v-22.764a1 1 0 1 1 2 0v22.764a1 1 0 0 1 -1 1z"/><path d="m960.8 298.5a1 1 0 0 1 -1-1v-20.7a1 1 0 1 1 2 0v20.7a1 1 0 0 1 -1 1z"/><path d="m983.964 206.5a1 1 0 0 1 -1-1v-20.108a1 1 0 1 1 2 0v20.108a1 1 0 0 1 -1 1z"/><path d="m1019 184.462a1 1 0 0 1 -1-1v-18.315a1 1 0 1 1 2 0v18.315a1 1 0 0 1 -1 1z"/><path d="m1055.885 160.11a1 1 0 0 1 -1-1v-31.084a1 1 0 0 1 2 0v31.084a1 1 0 0 1 -1 1z"/><path d="m1120.981 90.706a1 1 0 0 1 -1-1v-17.246a1 1 0 0 1 2 0v17.246a1 1 0 0 1 -1 1z"/><path d="m1091.587 128.19a1 1 0 0 1 -1-1v-34.519a1 1 0 0 1 2 0v34.519a1 1 0 0 1 -1 1z"/><path d="m1157.326 100.778a1 1 0 0 1 -1-1v-23.494a1 1 0 0 1 2 0v23.494a1 1 0 0 1 -1 1z"/></g><path d="m1120.709 75.245 5.925-1.542.885-43.225-5.993-.745-5.788.745.613 43.225z" fill="#c8ff00"/><path d="m436.398 945.724 2.63 406.42 39.189 5.23 9.863-10.593 3.945-406.287-33.007-1.877z" fill="#c8ff00"/><path d="m513.964 896.664-6.797 5.387 2.583 339.139 33.849.598 1.224-339.138-4.758-6.225z" fill="#c8ff00"/><path d="m311.862 983.702 2.625 334.942 28.999 7.92 14.172-7.92 3.937-334.942-31.493-4.699z" fill="#c8ff00"/><path d="m190.299 996.111 2.368 247.471 22.678 7.64 15.078-7.64 3.364-247.471-24.547-4.015z" fill="#c8ff00"/><path d="m108.346 977.588 1.659 160.891 13.394 6.703 13.522-6.703 2.424-160.891-15.946-2.753z" fill="#c8ff00"/><path d="m552.357 532.147 1.344 136.35 5.484 3.95 17.461-1.796 2.126-136.349-9.85-2.754z" fill="#c8ff00"/><path d="m367.676 727.155 1.008 112.527 8.17 2.993 8.282-2.993 1.455-112.527-10.297-1.078z" fill="#c8ff00"/><path d="m952.736 191.212.896 87.508 1.903 1.796 11.528-.599 1.231-87.867-4.701-1.077z" fill="#c8ff00"/><path d="m1203.226 262.32 1.119 117.196 9.29 3.352 10.185-3.352 1.68-117.196-11.865-1.317z" fill="#c8ff00"/><path d="m405.731 623.725 1.231 145.567 7.723 3.592 12.871-3.592 1.903-145.567-10.297-1.676z" fill="#c8ff00"/><path d="m1116.372 258.63 1.231 85.533 7.834 3.592 12.872-3.592 1.903-85.533-10.409-1.676z" fill="#c8ff00"/><path d="m471.319 557.765 1.343 185.311 8.395 4.669 13.879-4.669 2.014-185.311-11.08-2.035z" fill="#c8ff00"/><path d="m1011.945 615.525 1.679 93.015 11.64 5.147 10.857-5.147 1.679-93.015-12.2-2.155z" fill="#c8ff00"/><path d="m1096.225 527.119 1.679 171.545 12.535 5.027 9.962-5.027 1.791-171.545-13.543-2.394z" fill="#c8ff00"/><path d="m1180.169 483.784 2.015 183.635 16.341 5.986 9.85-5.986 2.015-183.635-16.901-2.753z" fill="#c8ff00"/><path d="m1387.792 412.796-6.716 2.035 1.455 72.544 13.879 3.113 1.455-5.148 1.455-72.185z" fill="#c8ff00"/><path d="m44.546 946.224.896 77.213 6.492 2.993 9.066-2.993 1.343-77.213-9.066-1.436z" fill="#c8ff00"/><path d="m1287.059 295.001 1.007 86.311 7.387 3.591 10.185-3.591 1.567-86.311-10.297-1.676z" fill="#c8ff00"/><path d="m1026.417 165.096 1.432-66.075-9.103-1.532-8.592 1.532.921 66.075 8.489 2.735z" fill="#c8ff00"/><path d="m1048.056 63.073.844 73.903 9.282 1.905 4.218-2.407 1.313-73.903-8.344-.501z" fill="#c8ff00"/><path d="m1152.593 24.494.483 52.326 3.477 1.704 4.781-1.704.725-52.326-4.83-.775z" fill="#c8ff00"/><path d="m0 920.606.784 39.145 4.029 2.514 9.066-2.514 1.231-39.145-8.506-1.317z" fill="#c8ff00"/><path d="m1352.424 332.47h-.001l1.008 39.145 10.968 2.754 5.372-3.113.784-39.265-10.185-.957z" fill="#c8ff00"/><path d="m974.897 145.124 1.008 39.145 8.059 4.07 7.723-4.07 1.343-39.145-9.066-1.796z" fill="#c8ff00"/><path d="m1046.754 217.189 1.231 54.349 7.723 3.591 12.872-3.591 1.902-54.349-10.297-1.676z" fill="#ff4a8b"/><path d="m643.224 554.892h-.001l1.679 188.423 1.455 5.148 19.811-1.078.784-190.698-6.492-2.274z" fill="#ff4a8b"/><path d="m732.902 637.133 1.679 121.984 5.037 3.711 15.781-3.711 1.679-121.984-10.745-1.317z" fill="#ff4a8b"/><path d="m1342.014 484.502-10.073 2.275 1.679 77.572 17.124 4.908 3.918-5.626 1.679-77.453z" fill="#ff4a8b"/><path d="m1257.622 484.023 1.791 117.675 14.214 5.148 7.947-5.746 1.791-117.675-13.767-1.915z" fill="#ff4a8b"/><path d="m935.384 659.159 1.678 53.63 10.969 5.746 11.641-5.746 1.679-53.63-12.648-2.035z" fill="#ff4a8b"/><path d="m837.893 651.977 1.678 92.655 11.081 5.148 11.416-5.148 1.679-92.655-12.088-2.155z" fill="#ff4a8b"/><path d="m436.846 820.05 1.008 72.783 6.491 2.993 8.954-2.993 1.343-72.783-9.066-1.437z" fill="#ff4a8b"/><path d="m990.12 243.399 1.007 86.311 5.26 2.394 12.2-2.394 1.567-86.311-9.849-1.078z" fill="#ff4a8b"/><path d="m487.101 849.618 1.007 39.265 8.842 4.07 8.283-4.07 1.567-39.265-9.85-1.676z" fill="#ff4a8b"/><path d="m1085.096 63.372.641 28.025 5.85 2.914 5.449-2.914 1.041-28.025-6.49-1.286z" fill="#ff4a8b"/><path d="m478.217 1357.374-39.188-5.23-2.631-406.42 43.134 2.682z" fill="#65c400"/><path d="m543.599 1241.788-33.849-.598-2.583-339.139 37.656.599z" fill="#65c400"/><path d="m343.486 1326.564-28.999-7.92-2.624-334.942 32.936 5.37z" fill="#65c400"/><path d="m215.345 1251.222-22.678-7.64-2.368-247.471 26.168 5.18z" fill="#65c400"/><path d="m123.399 1145.182-13.394-6.703-1.659-160.891 15.946 4.789z" fill="#65c400"/><path d="m559.185 672.447-5.484-3.95-1.343-136.35 7.499 2.633z" fill="#65c400"/><path d="m376.854 842.675-8.171-2.993-1.007-112.527 9.738 1.675z" fill="#65c400"/><path d="m955.535 280.516-1.903-1.796-.896-87.508 3.246 1.078z" fill="#65c400"/><path d="m1213.635 382.868-9.29-3.352-1.119-117.196 10.969 1.916z" fill="#65c400"/><path d="m414.685 772.884-7.723-3.591-1.231-145.568 9.625 2.035z" fill="#65c400"/><path d="m1125.438 347.755-7.835-3.592-1.231-85.533 9.625 1.915z" fill="#65c400"/><path d="m481.057 747.745-8.395-4.669-1.343-185.311 10.409 2.514z" fill="#65c400"/><path d="m1025.264 713.687-11.64-5.147-1.679-93.015 13.655 2.873z" fill="#65c400"/><path d="m1110.44 703.691-12.536-5.027-1.679-171.545 14.551 2.753z" fill="#65c400"/><path d="m1198.525 673.405-16.341-5.986-2.015-183.635 18.692 3.352z" fill="#65c400"/><path d="m1396.41 490.488-13.879-3.113-1.455-72.544 15.558 1.197z" fill="#65c400"/><path d="m51.934 1026.43-6.492-2.993-.896-77.213 7.947 2.035z" fill="#65c400"/><path d="m1295.453 384.903-7.387-3.591-1.007-86.311 8.954 2.394z" fill="#65c400"/><path d="m1019.564 167.831-8.489-2.735-.921-66.076 9.819 1.641z" fill="#65c400"/><path d="m1058.182 138.881-9.282-1.905-.844-73.903 10.594.902z" fill="#65c400"/><path d="m1120.709 75.245-4.358-1.542-.613-43.225 5.243 1.01z" fill="#65c400"/><path d="m1156.553 78.524-3.477-1.704-.483-52.326 4.201 1.136z" fill="#65c400"/><path d="m4.813 962.265-4.029-2.514-.784-39.145 5.149 1.676z" fill="#65c400"/><path d="m1364.399 374.369-10.969-2.753-1.007-39.146 11.976 1.317z" fill="#65c400"/><path d="m983.964 188.339-8.059-4.07-1.007-39.145 9.066 2.514z" fill="#65c400"/><path d="m1055.708 275.129-7.723-3.591-1.231-54.349 9.626 1.916z" fill="#ff0068"/><path d="m646.357 748.463-1.455-5.148-1.679-188.423 3.47 2.873z" fill="#ff0068"/><path d="m739.617 762.828-5.036-3.711-1.679-121.984 7.051 1.436z" fill="#ff0068"/><path d="m1350.744 569.257-17.124-4.908-1.679-77.572 19.139 2.753z" fill="#ff0068"/><path d="m1273.627 606.846-14.214-5.148-1.791-117.675 16.341 2.754z" fill="#ff0068"/><path d="m948.031 718.535-10.968-5.746-1.679-53.63 12.983 3.592z" fill="#ff0068"/><path d="m850.652 749.78-11.081-5.148-1.679-92.655 13.096 2.873z" fill="#ff0068"/><path d="m444.345 895.826-6.492-2.993-1.007-72.783 7.947 2.035z" fill="#ff0068"/><path d="m996.387 332.104-5.26-2.394-1.007-86.311 6.827 1.197z" fill="#ff0068"/><path d="m496.95 892.953-8.842-4.07-1.007-39.265 9.849 2.634z" fill="#ff0068"/><path d="m1091.587 94.311-5.85-2.914-.641-28.025 6.491 1.8z" fill="#ff0068"/><path d="m7.555 921.606a1 1 0 0 1 -1-1v-16.879a1 1 0 0 1 2 0v16.879a1 1 0 0 1 -1 1z" fill="#fff"/><path d="m53.445 947.724a1.5 1.5 0 0 1 -1.5-1.5v-26.1a1.5 1.5 0 0 1 3 0v26.1a1.5 1.5 0 0 1 -1.5 1.5z" fill="#fff"/><path d="m123.846 979.588a2 2 0 0 1 -2-2v-40.821a2 2 0 0 1 4 0v40.821a2 2 0 0 1 -2 2z" fill="#fff"/><path d="m212.043 999.111a3 3 0 0 1 -3-3v-50.844a3 3 0 0 1 6 0v50.844a3 3 0 0 1 -3 3z" fill="#fff"/><path d="m336.784 986.7a3 3 0 0 1 -3-3v-53.756a3 3 0 0 1 6 0v53.756a3 3 0 0 1 -3 3z" fill="#fff"/><path d="m468.3 947.011a3.5 3.5 0 0 1 -3.5-3.5v-39.784a3.5 3.5 0 0 1 7 0v39.784a3.5 3.5 0 0 1 -3.5 3.5z" fill="#fff"/><path d="m526 900.923a2.5 2.5 0 0 1 -2.5-2.5v-28.1a2.5 2.5 0 0 1 5 0v28.1a2.5 2.5 0 0 1 -2.5 2.5z" fill="#fff"/><path d="m496.95 851.618a2 2 0 0 1 -2-2v-12.57a2 2 0 0 1 4 0v12.57a2 2 0 0 1 -2 2z" fill="#fff"/><path d="m445.8 822.05a2 2 0 0 1 -2-2v-21.189a2 2 0 0 1 4 0v21.189a2 2 0 0 1 -2 2z" fill="#fff"/><path d="m377.134 729.155a2 2 0 0 1 -2-2v-18.915a2 2 0 0 1 4 0v18.915a2 2 0 0 1 -2 2z" fill="#fff"/><path d="m417.6 625.106a1.5 1.5 0 0 1 -1.5-1.5v-19.034a1.5 1.5 0 0 1 3 0v19.034a1.5 1.5 0 0 1 -1.5 1.5z" fill="#fff"/><path d="m484.135 558.739a1.5 1.5 0 0 1 -1.5-1.5v-27.055a1.5 1.5 0 0 1 3 0v27.055a1.5 1.5 0 0 1 -1.5 1.5z" fill="#fff"/><path d="m565.005 534.664a1.5 1.5 0 0 1 -1.5-1.5v-47.106a1.5 1.5 0 0 1 3 0v47.106a1.5 1.5 0 0 1 -1.5 1.5z" fill="#fff"/><path d="m654.326 557.23a1.5 1.5 0 0 1 -1.5-1.5v-51.954a1.5 1.5 0 0 1 3 0v51.954a1.5 1.5 0 0 1 -1.5 1.5z" fill="#fff"/><path d="m743.759 638.693a1.5 1.5 0 0 1 -1.5-1.5v-52.015a1.5 1.5 0 1 1 3 0v52.015a1.5 1.5 0 0 1 -1.5 1.5z" fill="#fff"/><path d="m850.652 653.477a1.5 1.5 0 0 1 -1.5-1.5v-36.871a1.5 1.5 0 0 1 3 0v36.871a1.5 1.5 0 0 1 -1.5 1.5z" fill="#fff"/><path d="m948.031 660.659a1.5 1.5 0 0 1 -1.5-1.5v-63.925a1.5 1.5 0 1 1 3 0v63.925a1.5 1.5 0 0 1 -1.5 1.5z" fill="#fff"/><path d="m1024.873 616.606a1.5 1.5 0 0 1 -1.5-1.5v-36.692a1.5 1.5 0 0 1 3 0v36.692a1.5 1.5 0 0 1 -1.5 1.5z" fill="#fff"/><path d="m1109.209 528.619a1.5 1.5 0 0 1 -1.5-1.5v-39.983a1.5 1.5 0 1 1 3 0v39.983a1.5 1.5 0 0 1 -1.5 1.5z" fill="#fff"/><path d="m1195.279 484.925a1.5 1.5 0 0 1 -1.5-1.5v-19.393a1.5 1.5 0 1 1 3 0v19.393a1.5 1.5 0 0 1 -1.5 1.5z" fill="#fff"/><path d="m1270.829 484.925a1.5 1.5 0 0 1 -1.5-1.5v-39.265a1.5 1.5 0 0 1 3 0v39.265a1.5 1.5 0 0 1 -1.5 1.5z" fill="#fff"/><path d="m1345.1 487.678a1.5 1.5 0 0 1 -1.5-1.5v-73.023a1.5 1.5 0 0 1 3 0v73.023a1.5 1.5 0 0 1 -1.5 1.5z" fill="#fff"/><path d="m1391.392 415.1a1.5 1.5 0 0 1 -1.5-1.5v-46.929a1.5 1.5 0 0 1 3 0v46.929a1.5 1.5 0 0 1 -1.5 1.5z" fill="#fff"/><path d="m1362.087 332.991a1 1 0 0 1 -1-1v-32.441a1 1 0 1 1 2 0v32.441a1 1 0 0 1 -1 1z" fill="#fff"/><path d="m1297.132 296a1 1 0 0 1 -1-1v-29.927a1 1 0 1 1 2 0v29.927a1 1 0 0 1 -1 1z" fill="#fff"/><path d="m1214.755 263.32a1 1 0 0 1 -1-1v-27.51a1 1 0 1 1 2 0v27.51a1 1 0 0 1 -1 1z" fill="#fff"/><path d="m1128.292 259.869a1 1 0 0 1 -1-1v-18.435a1 1 0 1 1 2 0v18.435a1 1 0 0 1 -1 1z" fill="#fff"/><path d="m1058.618 218.189a1 1 0 0 1 -1-1v-30.047a1 1 0 0 1 2 0v30.047a1 1 0 0 1 -1 1z" fill="#fff"/><path d="m1000.137 244.459a1 1 0 0 1 -1-1v-22.759a1 1 0 1 1 2 0v22.764a1 1 0 0 1 -1 .995z" fill="#fff"/><path d="m960.8 192.212a1 1 0 0 1 -1-1v-20.7a1 1 0 1 1 2 0v20.7a1 1 0 0 1 -1 1z" fill="#fff"/><path d="m983.964 146.124a1 1 0 0 1 -1-1v-20.112a1 1 0 0 1 2 0v20.112a1 1 0 0 1 -1 1z" fill="#fff"/><path d="m1019 100.02a1 1 0 0 1 -1-1v-18.315a1 1 0 1 1 2 0v18.315a1 1 0 0 1 -1 1z" fill="#fff"/><path d="m1055.885 63.572a1 1 0 0 1 -1-1v-25.193a1 1 0 1 1 2 0v25.193a1 1 0 0 1 -1 1z" fill="#fff"/><path d="m1120.981 31.478a1 1 0 0 1 -1-1v-27.578a1 1 0 1 1 2 0v27.578a1 1 0 0 1 -1 1z" fill="#fff"/><path d="m1091.587 63.484a1 1 0 0 1 -1-1v-42.536a1 1 0 0 1 2 0v42.536a1 1 0 0 1 -1 1z" fill="#fff"/><path d="m1157.326 25.493a1 1 0 0 1 -1-1v-23.493a1 1 0 0 1 2 0v23.493a1 1 0 0 1 -1 1z" fill="#fff"/></svg>