<svg enable-background="new 0 0 418.942 385.233" height="386" viewBox="0 0 418.942 385.233" width="419" xmlns="http://www.w3.org/2000/svg" xmlns:xlink="http://www.w3.org/1999/xlink"><linearGradient id="a" gradientUnits="userSpaceOnUse" x1="112.3989" x2="112.3989" y1="133.7133" y2="106.3751"><stop offset="0" stop-color="#65c400"/><stop offset=".155" stop-color="#7fd300"/><stop offset=".3848" stop-color="#9fe600"/><stop offset=".6071" stop-color="#b5f400"/><stop offset=".8166" stop-color="#c3fc00"/><stop offset="1" stop-color="#c8ff00"/></linearGradient><linearGradient id="b"><stop offset="0" stop-color="#c8ff00"/><stop offset=".1798" stop-color="#c3fc00"/><stop offset=".3921" stop-color="#b5f400"/><stop offset=".6207" stop-color="#9de500"/><stop offset=".8592" stop-color="#7cd200"/><stop offset="1" stop-color="#65c400"/></linearGradient><linearGradient id="c" gradientUnits="userSpaceOnUse" x1="100.6938" x2="305.4152" xlink:href="#b" y1="303.7025" y2="170.8473"/><linearGradient id="d" gradientUnits="userSpaceOnUse" x1="72.5012" x2="391.9539" xlink:href="#b" y1="350.7021" y2="143.3912"/><linearGradient id="e" gradientUnits="userSpaceOnUse" x1="419.8629" x2="80.4064" y1="230.6986" y2="288.2849"><stop offset="0" stop-color="#65c400"/><stop offset="1" stop-color="#65c400"/></linearGradient><linearGradient id="f" gradientUnits="userSpaceOnUse" x1="211.8236" x2="338.8167" y1="419.9439" y2="355.3866"><stop offset="0" stop-color="#c8ff00"/><stop offset=".1458" stop-color="#b0f100"/><stop offset=".3813" stop-color="#8fdd00"/><stop offset=".6077" stop-color="#78cf00"/><stop offset=".819" stop-color="#6ac700"/><stop offset="1" stop-color="#65c400"/></linearGradient><linearGradient id="g" gradientUnits="userSpaceOnUse" x1="367.4367" x2="264.4961" y1="238.1988" y2="384.1872"><stop offset="0" stop-color="#c8ff00"/><stop offset=".0277" stop-color="#c4fc00"/><stop offset=".3149" stop-color="#9be400"/><stop offset=".5764" stop-color="#7dd300"/><stop offset=".801" stop-color="#6bc800"/><stop offset=".9626" stop-color="#65c400"/></linearGradient><linearGradient id="h" gradientUnits="userSpaceOnUse" x1="130.8144" x2="204.9189" y1="178.6462" y2="158.1879"><stop offset="0" stop-color="#ff4a8b" stop-opacity=".1"/><stop offset="1" stop-color="#ff4a8b"/></linearGradient><linearGradient id="i" gradientUnits="userSpaceOnUse" x1="-6.0321" x2="60.3438" xlink:href="#b" y1="204.7911" y2="195.6985"/><linearGradient id="j" gradientUnits="userSpaceOnUse" x1="225.7495" x2="219.8394" y1="151.3647" y2="241.3813"><stop offset=".3815" stop-color="#ff4a8b" stop-opacity=".1"/><stop offset="1" stop-color="#ff4a8b"/></linearGradient><linearGradient id="k" gradientUnits="userSpaceOnUse" x1="409.3464" x2="69.8899" xlink:href="#b" y1="195.8326" y2="253.4189"/><linearGradient id="l" gradientUnits="userSpaceOnUse" x1="297.2763" x2="179.0727" y1="89.1217" y2="212.3262"><stop offset="0" stop-color="#ff4a8b"/><stop offset="1" stop-color="#ff4a8b" stop-opacity=".1"/></linearGradient><linearGradient id="m" gradientUnits="userSpaceOnUse" x1=".1756" x2="319.6284" xlink:href="#b" y1="257.4362" y2="50.1252"/><linearGradient id="n" gradientUnits="userSpaceOnUse" x1="68.6082" x2="273.3296" y1="362.4461" y2="229.5909"><stop offset="0" stop-color="#c8ff00"/><stop offset=".1139" stop-color="#c3fc00"/><stop offset=".2484" stop-color="#b5f400"/><stop offset=".3932" stop-color="#9de500"/><stop offset=".5443" stop-color="#7cd200"/><stop offset=".6335" stop-color="#65c400"/></linearGradient><linearGradient id="o" gradientUnits="userSpaceOnUse" x1="8.1836" x2="74.5595" xlink:href="#b" y1="310.8662" y2="301.7736"/><linearGradient id="p" gradientUnits="userSpaceOnUse" x1="212.3336" x2="206.4234" xlink:href="#b" y1="285.9002" y2="375.4622"/><linearGradient id="q" gradientUnits="userSpaceOnUse" x1="104.7708" x2="98.8606" xlink:href="#b" y1="278.954" y2="368.516"/><linearGradient id="r" gradientUnits="userSpaceOnUse" x1="82.9719" x2="402.4247" xlink:href="#b" y1="381.8285" y2="174.5175"/><linearGradient id="s" gradientUnits="userSpaceOnUse" x1="46.8091" x2="366.2619" xlink:href="#b" y1="335.1955" y2="127.8846"/><path d="m238.435 104.07h-10.995v-24.055c0-3.036 2.461-5.497 5.497-5.497 3.036 0 5.497 2.461 5.497 5.497v24.055z" fill="#ff4a8b"/><path d="m232.938 77.288c-.553 0-1-.447-1-1v-46.356c0-6.085-4.95-11.035-11.035-11.035h-186.108c-.553 0-1-.447-1-1s.447-1 1-1h186.108c7.188 0 13.035 5.848 13.035 13.035v46.355c-0 .553-.447 1.001-1 1.001z" fill="#ff4a8b"/><path d="m117.896 134.278h-10.995v-24.054c0-3.036 2.461-5.497 5.497-5.497 3.036 0 5.497 2.461 5.497 5.497v24.054z" fill="url(#a)"/><path d="m112.398 105.726c-.553 0-1-.447-1-1v-25.066c0-6.084-4.95-11.034-11.034-11.034h-64.391c-.553 0-1-.447-1-1s.447-1 1-1h64.392c7.188 0 13.034 5.847 13.034 13.034v25.066c-.001.553-.448 1-1.001 1z" fill="#c8ff00"/><g fill="#ff4a8b"><path d="m17.897 35.794c-9.869 0-17.897-8.028-17.897-17.897 0-9.868 8.028-17.897 17.897-17.897s17.897 8.028 17.897 17.896c.001 9.87-8.027 17.898-17.897 17.898zm0-33.794c-8.765 0-15.897 7.131-15.897 15.897s7.132 15.897 15.897 15.897 15.897-7.132 15.897-15.897-7.131-15.897-15.897-15.897z"/><path d="m24.571 25.572c-.256 0-.512-.098-.707-.293l-13.347-13.349c-.391-.391-.391-1.023 0-1.414s1.023-.391 1.414 0l13.348 13.349c.391.391.391 1.023 0 1.414-.196.195-.452.293-.708.293z"/><path d="m11.224 25.572c-.256 0-.512-.098-.707-.293-.391-.391-.391-1.023 0-1.414l13.348-13.349c.391-.391 1.023-.391 1.414 0s.391 1.023 0 1.414l-13.348 13.349c-.196.195-.452.293-.707.293z"/></g><path d="m17.897 85.523c-9.869 0-17.897-8.028-17.897-17.898s8.028-17.897 17.897-17.897 17.897 8.028 17.897 17.897-8.027 17.898-17.897 17.898zm0-33.795c-8.765 0-15.897 7.132-15.897 15.897s7.132 15.897 15.897 15.897 15.897-7.132 15.897-15.897-7.131-15.897-15.897-15.897z" fill="#c8ff00"/><path d="m16.834 76.813c-.344 0-.664-.177-.848-.47l-6.063-9.691c-.293-.468-.151-1.085.317-1.378.469-.295 1.086-.151 1.378.317l5.134 8.206 7.422-14.323c.254-.49.857-.681 1.348-.428.49.254.682.857.428 1.348l-8.228 15.879c-.165.319-.488.524-.848.539-.013.001-.026.001-.04.001z" fill="#c8ff00"/><path d="m401.045 339.334c-.553 0-1-.448-1-1v-12c0-.552.447-1 1-1s1 .448 1 1v12c0 .552-.447 1-1 1zm0-24c-.553 0-1-.448-1-1v-12c0-.552.447-1 1-1s1 .448 1 1v12c0 .552-.447 1-1 1zm0-24c-.553 0-1-.448-1-1v-12c0-.552.447-1 1-1s1 .448 1 1v12c0 .552-.447 1-1 1zm0-24c-.553 0-1-.448-1-1v-12c0-.552.447-1 1-1s1 .448 1 1v12c0 .552-.447 1-1 1zm0-24c-.553 0-1-.448-1-1v-12c0-.552.447-1 1-1s1 .448 1 1v12c0 .552-.447 1-1 1zm0-24c-.553 0-1-.448-1-1v-12c0-.552.447-1 1-1s1 .448 1 1v12c0 .552-.447 1-1 1zm-.03-23.999c-.517 0-.954-.397-.996-.92-.295-3.685-3.043-6.701-6.685-7.335-.544-.095-.908-.613-.813-1.157.096-.543.606-.905 1.157-.813 4.54.791 7.967 4.552 8.335 9.146.044.55-.367 1.032-.917 1.076-.028.002-.055.003-.081.003zm-18.08-8.377h-12c-.553 0-1-.448-1-1s.447-1 1-1h12c.553 0 1 .448 1 1s-.447 1-1 1z" fill="#c8ff00"/><path d="m277.269 235.741-25.254 25.255v-102.123l25.254-25.254z" fill="url(#c)"/><path d="m277.269 133.619h102.122v102.122h-102.122z" fill="url(#d)"/><path d="m354.137 260.996h-102.122l25.254-25.255h102.123z" fill="url(#e)"/><path d="m266.51 359.979-25.255 25.254v-102.122l25.255-25.254z" fill="#65c400"/><path d="m343.378 385.233h-102.123l25.255-25.254h102.122z" fill="url(#f)"/><path d="m266.51 257.857h102.122v102.122h-102.122z" fill="url(#g)"/><path d="m182.887 206.19-25.255 25.255v-102.123l25.255-25.254z" fill="url(#h)"/><path d="m61.227 235.741-25.255 25.255v-102.123l25.255-25.254z" fill="url(#i)"/><path d="m259.755 231.445h-102.123l25.255-25.255h102.122z" fill="url(#j)"/><path d="m138.095 260.996h-102.123l25.255-25.255h102.122z" fill="url(#k)"/><path d="m182.887 104.068h102.122v102.122h-102.122z" fill="url(#l)"/><path d="m61.227 133.619h102.122v102.122h-102.122z" fill="url(#m)"/><path d="m169.248 343.764-25.254 25.254v-102.122l25.254-25.255z" fill="url(#n)"/><path d="m61.227 343.764-25.255 25.254v-102.122l25.255-25.255z" fill="url(#o)"/><path d="m246.116 369.018h-102.122l25.254-25.254h102.122z" fill="url(#p)"/><path d="m138.095 369.018h-102.123l25.255-25.254h102.122z" fill="url(#q)"/><path d="m169.248 241.641h102.122v102.122h-102.122z" fill="url(#r)"/><path d="m61.227 241.641h102.122v102.122h-102.122z" fill="url(#s)"/><ellipse cx="304.944" cy="373.708" fill="#030a24" rx="7.4" ry="3.332"/><ellipse cx="207.485" cy="357.279" fill="#030a24" rx="7.4" ry="3.332"/><ellipse cx="104.888" cy="357.279" fill="#030a24" rx="7.4" ry="3.332"/><path d="m401.045 383.338c-9.869 0-17.897-8.028-17.897-17.897s8.028-17.897 17.897-17.897 17.897 8.028 17.897 17.897-8.028 17.897-17.897 17.897zm0-33.795c-8.766 0-15.897 7.132-15.897 15.897s7.132 15.897 15.897 15.897 15.897-7.132 15.897-15.897-7.131-15.897-15.897-15.897z" fill="#c8ff00"/><path d="m401.045 376.022c-5.834 0-10.581-4.747-10.581-10.581s4.747-10.581 10.581-10.581 10.581 4.747 10.581 10.581c0 .553-.447 1-1 1s-1-.447-1-1c0-4.731-3.85-8.581-8.581-8.581s-8.581 3.85-8.581 8.581 3.85 8.581 8.581 8.581c.553 0 1 .447 1 1s-.447 1-1 1z" fill="#c8ff00"/><path d="m410.626 367.395c-.249 0-.498-.093-.691-.277l-2.088-1.996c-.398-.382-.413-1.015-.031-1.414.381-.399 1.013-.414 1.414-.031l1.396 1.335 1.396-1.335c.4-.383 1.033-.366 1.414.031.382.399.367 1.032-.031 1.414l-2.088 1.996c-.193.184-.442.277-.691.277z" fill="#c8ff00"/></svg>