<svg height="782.518" viewBox="0 0 346.518 782.518" width="346.518" xmlns="http://www.w3.org/2000/svg" xmlns:xlink="http://www.w3.org/1999/xlink"><linearGradient id="a" gradientUnits="userSpaceOnUse" x1="21.162" x2="57.91" y1="495.895" y2="441.157"><stop offset="0" stop-color="#ff4a8b"/><stop offset=".996" stop-color="#2c25a3"/></linearGradient><linearGradient id="b" gradientUnits="userSpaceOnUse" x1="188.504" x2="167.17" y1="527.272" y2="323.272"><stop offset="0" stop-color="#ff4a8b"/><stop offset=".696" stop-color="#2c25a3"/><stop offset=".932" stop-color="#c8ff00"/></linearGradient><linearGradient id="c" gradientUnits="userSpaceOnUse" x1="369.581" x2="94.804" y1="639.579" y2="476.465"><stop offset="0" stop-color="#6898ec"/><stop offset="0" stop-color="#6da2ef"/><stop offset="1" stop-color="#352acf"/></linearGradient><linearGradient id="d" gradientUnits="userSpaceOnUse" x1="47.121" x2="127.32" y1="33.386" y2="282.621"><stop offset="0" stop-color="#ff4a8b"/><stop offset=".593" stop-color="#2c25a3"/></linearGradient><linearGradient id="e" x1="97.728" x2="311.736" xlink:href="#c" y1="84.826" y2="84.826"/><linearGradient id="f" x1="31.069" x2="154.021" xlink:href="#c" y1="177.721" y2="326.681"/><linearGradient id="g" x1="9.993" x2="93.931" xlink:href="#a" y1="215.424" y2="363.202"/><linearGradient id="h" gradientUnits="userSpaceOnUse" x1="15.777" x2="149.777" y1="126.915" y2="282.915"><stop offset="0" stop-color="#6898ec"/><stop offset=".296" stop-color="#6da2ef"/><stop offset=".613" stop-color="#352acf" stop-opacity="0"/></linearGradient><linearGradient id="i" gradientUnits="userSpaceOnUse" x1="413.648" x2="147.648" y1="102.193" y2="466.193"><stop offset=".383" stop-color="#c8ff00"/><stop offset="1" stop-color="#65c400"/></linearGradient><linearGradient id="j" gradientUnits="userSpaceOnUse" x1="-24.129" x2="287.234" y1="226.434" y2="276.689"><stop offset=".203" stop-color="#c8ff00"/><stop offset=".845" stop-color="#65c400"/></linearGradient><linearGradient id="k" gradientUnits="userSpaceOnUse" x1="477.356" x2="157.792" y1="202.699" y2="202.699"><stop offset=".29" stop-color="#c8ff00"/><stop offset="1" stop-color="#65c400"/></linearGradient><linearGradient id="l" x1="-110.146" x2="89.56" xlink:href="#k" y1="570.131" y2="602.365"/><linearGradient id="m" x1="211.503" x2="6.537" xlink:href="#k" y1="554.908" y2="554.908"/><radialGradient id="n" cx="245.06" cy="593.084" r="137.409" xlink:href="#d"/><linearGradient id="o" gradientUnits="userSpaceOnUse" x1="123.22" x2="385.22" y1="557.373" y2="667.373"><stop offset=".185" stop-color="#ff4a8b"/><stop offset=".229" stop-color="#ff4e8e"/><stop offset=".273" stop-color="#ff5a95"/><stop offset=".318" stop-color="#ff6fa2"/><stop offset=".363" stop-color="#ff8bb5"/><stop offset=".408" stop-color="#ffb0cc"/><stop offset=".453" stop-color="#ffdce9"/><stop offset=".484" stop-color="#fff"/></linearGradient><linearGradient id="p" x1="128.096" x2="390.096" xlink:href="#o" y1="545.759" y2="655.759"/><linearGradient id="q" gradientUnits="userSpaceOnUse" x1="126.805" x2="223.141" y1="573.505" y2="617.841"><stop offset="0" stop-color="#6898ec"/><stop offset="0" stop-color="#6da2ef"/><stop offset=".697" stop-color="#201d7d"/></linearGradient><linearGradient id="r" x1="322.754" x2="86.393" xlink:href="#k" y1="680.442" y2="680.442"/><linearGradient id="s" x1="14.42" x2="148.53" xlink:href="#k" y1="690.665" y2="712.311"/><linearGradient id="t" x1="529.818" x2="77.257" xlink:href="#c" y1="43.415" y2="599.451"/><linearGradient id="u" gradientUnits="userSpaceOnUse" x1="137.809" x2="251.258" y1="561.944" y2="392.958"><stop offset="0" stop-color="#ff4a8b"/><stop offset=".134" stop-color="#fa4b8e"/><stop offset=".291" stop-color="#ec4f95"/><stop offset=".459" stop-color="#d555a1"/><stop offset=".634" stop-color="#b45db3"/><stop offset=".815" stop-color="#8a68c9"/><stop offset=".996" stop-color="#5875e3"/></linearGradient><linearGradient id="v" x1="157.394" x2="289.394" xlink:href="#o" y1="621.581" y2="88.248"/><linearGradient id="w" x1="369.581" x2="94.804" xlink:href="#h" y1="639.579" y2="476.465"/><linearGradient id="x" x1="293.825" x2="281.392" xlink:href="#h" y1="569.834" y2="562.454"/><radialGradient id="y" cx="240.777" cy="476.518" r="202.744" xlink:href="#d"/><linearGradient id="z" gradientUnits="userSpaceOnUse" x1="-16.691" x2="101.976" y1="319.833" y2="678.499"><stop offset="0" stop-color="#ff4a8b"/><stop offset=".593" stop-color="#2c25a3" stop-opacity=".3"/></linearGradient><linearGradient id="A" x1="61.905" x2="106.35" xlink:href="#o" y1="309.51" y2="156.621"/><linearGradient id="B" x1="217.71" x2="311.736" xlink:href="#c" y1="21.099" y2="21.099"/><linearGradient id="C" gradientUnits="userSpaceOnUse" x1="139.469" x2="224.469" y1="-101.172" y2="179.828"><stop offset=".296" stop-color="#6da2ef"/><stop offset=".604" stop-color="#352acf" stop-opacity="0"/></linearGradient><circle cx="69.187" cy="640.711" fill="#030a24" r="6.5"/><path d="m271.928 353.757a4.5 4.5 0 0 1 4.5 4.5v16.636a0 0 0 0 1 0 0h-9a0 0 0 0 1 0 0v-16.636a4.5 4.5 0 0 1 4.5-4.5z" fill="#030a24"/><path d="m270.928 336.795h2v24.827h-2z" fill="#030a24"/><path d="m0 485.336 46.132 26.324v-117.003l-46.132-26.325z" fill="#352acf"/><path d="m46.132 437.905a241.682 241.682 0 0 0 -46.132 36.551v10.88l46.132 26.324z" fill="url(#a)"/><path d="m0 485.336 46.132 26.324v-117.003l-46.132-26.325z" fill="none"/><path d="m0 368.332 46.132 26.325h300.386l-46.132-26.325z" fill="url(#b)"/><path d="m167.513 546.211 34.783 19.848h88.218l-34.783-19.848z" fill="url(#c)"/><path d="m82.504 26.324h229.232v117.004h-229.232z" fill="#352acf"/><path d="m36.372 117.004 46.132 26.324v-117.004l-46.132-26.324z" fill="url(#d)"/><path d="m36.372 0 46.132 26.324h229.232l-46.132-26.324z" fill="#ff7bb1"/><path d="m97.728 143.328h214.008v-117h-71.585a225.014 225.014 0 0 0 -142.423 117z" fill="url(#e)"/><path d="m115.513 113.53c1.942-.125 3.644-.226 4.37-.3 52.751-5.09 93.69-4.512 101.338-20.36 4.417-9.153-3.645-14.856.463-25.45 8.506-21.94 70.8-16.658 76.35-26.838.917-1.682 1.277-7.428-1.481-14.262h-56.394a224.8 224.8 0 0 0 -124.646 87.21z" fill="#ff4a8b" opacity=".8"/><path d="m257 143.328h54.738v-37.388c-13.5.45-30.865 7.683-42.306 18.972a57.619 57.619 0 0 0 -12.432 18.416z" fill="#ff4a8b" opacity=".8"/><path d="m240.15 26.324a225.015 225.015 0 0 0 -142.422 117h5.35c29.17-59.536 82.232-103.738 150.674-117z" fill="#fff" opacity=".46"/><path d="m36.498 194.088h92.567v92.567h-92.567z" fill="url(#f)"/><path d="m0 265.829 36.498 20.827v-92.568l-36.498-20.826z" fill="url(#g)"/><path d="m0 173.262 36.498 20.826h92.567l-36.498-20.826z" fill="url(#h)"/><circle cx="82.781" cy="240.372" fill="#ff4a8b" r="26.95"/><path d="m225.981 216.259h120.537v120.537h-120.537z" fill="url(#i)"/><path d="m178.456 309.676 47.525 27.119v-120.536l-47.525-27.12z" fill="url(#j)"/><path d="m226.069 279.018-47.459-27-.01-4.75 47.329 26.882z" fill="#65c400"/><path d="m178.456 189.139 47.525 27.12h120.537l-47.525-27.12z" fill="url(#k)"/><path d="m283.444 216.185-47.112-27.167 4.889.141 47.526 27.119z" fill="#c8ff00"/><path d="m283.749 216.259h5v120.536h-5z" fill="#65c400"/><path d="m225.981 274.027h120.537v5h-120.537z" fill="#65c400"/><path d="m323.09 202.883h-120.917l-4.896-2.976h120.5z" fill="#c8ff00"/><path d="m202.181 323.074-5-2.464v-120.717l5 2.986z" fill="#65c400"/><path d="m50.273 563.605h77.311v77.311h-77.311z" fill="#c8ff00"/><path d="m19.79 623.522 30.483 17.394v-77.311l-30.483-17.394z" fill="url(#l)"/><path d="m50.272 603.5a.991.991 0 0 1 -.495-.132l-30.483-17.394a1 1 0 0 1 .992-1.737l30.483 17.395a1 1 0 0 1 -.5 1.868z" fill="#65c400"/><path d="m19.79 546.211 30.483 17.394h77.311l-30.482-17.394z" fill="url(#m)"/><path d="m88.928 564.605a1 1 0 0 1 -.495-.131l-30.483-17.4a1 1 0 1 1 .993-1.736l30.482 17.394a1 1 0 0 1 -.5 1.868z" fill="#c8ff00"/><path d="m88.929 641.916a1 1 0 0 1 -1-1v-77.311a1 1 0 0 1 2 0v77.311a1 1 0 0 1 -1 1z" fill="#65c400"/><path d="m127.584 603.261h-77.311a1 1 0 0 1 0-2h77.311a1 1 0 1 1 0 2z" fill="#65c400"/><path d="m110.716 554.979h-77.311a1 1 0 1 1 0-2h77.311a1 1 0 1 1 0 2z" fill="#c8ff00"/><path d="m33.405 632.291a1 1 0 0 1 -1-1v-77.312a1 1 0 0 1 2 0v77.312a1 1 0 0 1 -1 1z" fill="#65c400"/><path d="m202.296 566.059h88.218v88.218h-88.218z" fill="#6da2ef"/><path d="m226.485 597.1a53.649 53.649 0 0 0 64.029 17.031v-48.072h-74.783a53.374 53.374 0 0 0 10.754 31.041z" fill="url(#n)"/><path d="m202.3 604.169a178.31 178.31 0 0 1 17.612-18.469c-.222-.527-.427-1.059-.631-1.59-6.607 6.137-12.334 11.908-16.985 17.1z" fill="url(#o)"/><path d="m290.514 570.209v-4.15h-6.1q-4.382 3.426-8.976 6.89c-32.024 24.1-61.381 41.31-73.143 43.487v8.364c16.441-5.266 45.956-22.587 77.374-46.228q5.573-4.19 10.845-8.363z" fill="url(#p)"/><path d="m202.296 566.059h88.218v88.218h-88.218z" fill="none"/><path d="m167.513 634.429 34.783 19.848v-88.218l-34.783-19.848z" fill="url(#q)"/><path d="m122.147 686.283h103.834v51.917h-103.834z" fill="#c8ff00"/><path d="m205.511 674.602h-51.917-2.659-49.258l20.47 11.681h51.917 51.917z" fill="url(#r)"/><path d="m101.677 726.519 20.47 11.681v-51.917l-20.47-11.681z" fill="url(#s)"/><path d="m122.147 712.9a.5.5 0 0 1 -.248-.065l-20.47-11.681a.5.5 0 1 1 .5-.869l20.47 11.681a.5.5 0 0 1 -.248.934z" fill="#65c400"/><path d="m148.106 686.783a.5.5 0 0 1 -.248-.065l-20.471-11.681a.5.5 0 1 1 .5-.869l20.471 11.681a.5.5 0 0 1 -.248.934z" fill="#c8ff00"/><path d="m200.023 738.7a.5.5 0 0 1 -.5-.5v-51.917a.5.5 0 0 1 1 0v51.917a.5.5 0 0 1 -.5.5z" fill="#65c400"/><path d="m225.981 712.741h-51.917a.5.5 0 1 1 0-1h51.917a.5.5 0 0 1 0 1z" fill="#65c400"/><path d="m148.106 738.7a.5.5 0 0 1 -.5-.5v-51.917a.5.5 0 0 1 1 0v51.917a.5.5 0 0 1 -.5.5z" fill="#65c400"/><path d="m174.064 712.741h-51.917a.5.5 0 0 1 0-1h51.917a.5.5 0 0 1 0 1z" fill="#65c400"/><path d="m162.736 680.319h-51.917a.5.5 0 1 1 0-1h51.917a.5.5 0 0 1 0 1z" fill="#c8ff00"/><path d="m200.023 686.783a.5.5 0 0 1 -.248-.065l-20.47-11.681a.5.5 0 1 1 .5-.869l20.47 11.681a.5.5 0 0 1 -.248.934z" fill="#c8ff00"/><path d="m174.064 686.783a.5.5 0 0 1 -.248-.065l-20.47-11.681a.5.5 0 1 1 .5-.869l20.47 11.681a.5.5 0 0 1 -.248.934z" fill="#c8ff00"/><path d="m214.654 680.319h-51.918a.5.5 0 0 1 0-1h51.918a.5.5 0 0 1 0 1z" fill="#c8ff00"/><path d="m110.819 732.236a.5.5 0 0 1 -.5-.5v-51.917a.5.5 0 0 1 1 0v51.917a.5.5 0 0 1 -.5.5z" fill="#65c400"/><path d="m174.064 738.7a.5.5 0 0 1 -.5-.5v-51.917a.5.5 0 0 1 1 0v51.917a.5.5 0 0 1 -.5.5z" fill="#65c400"/><g fill="#030a24"><circle cx="227.704" cy="144.057" r="6.5"/><path d="m226.704 144.057h2v37.498h-2z"/><circle cx="332.082" cy="84.826" r="6.5"/><path d="m311.736 83.826h20.347v2h-20.347z"/><path d="m64.533 286.656a4.5 4.5 0 0 1 4.5 4.5v16.636a0 0 0 0 1 0 0h-9a0 0 0 0 1 0 0v-16.636a4.5 4.5 0 0 1 4.5-4.5z" transform="matrix(-1 -0 0 -1 129.065 594.447)"/><path d="m189.024 306.72a4.5 4.5 0 0 1 4.5 4.5v16.636a0 0 0 0 1 0 0h-9a0 0 0 0 1 0 0v-16.636a4.5 4.5 0 0 1 4.5-4.5z" transform="matrix(0 -1 1 0 -128.264 506.311)"/><path d="m63.532 123.972h2v45.362h-2z"/><path d="m228.013 497.502h2v45.361h-2z"/><path d="m72.688 497.502h2v45.361h-2z"/><path d="m189.024 318.288h-114.863a10.642 10.642 0 0 1 -10.629-10.63v-10.434h2v10.434a8.64 8.64 0 0 0 8.629 8.63h114.863z"/><path d="m93.931 706.777h-3.718a15.494 15.494 0 0 1 -13.12-7.189l-6.46-10.118a15.539 15.539 0 0 1 -2.445-8.376v-40.383h2v40.383a13.541 13.541 0 0 0 2.131 7.3l6.46 10.119a13.506 13.506 0 0 0 11.434 6.265h3.718z"/></g><path d="m46.132 394.657h300.386v117.004h-300.386z" fill="url(#t)"/><path d="m346.518 478.584a240.729 240.729 0 0 0 -300.386-40.679v73.755h300.386z" fill="url(#u)"/><path d="m343.5 475.439a240.715 240.715 0 0 0 -289.437-42.151 21.586 21.586 0 0 1 8.579 4.643c8.784 7.963 4.317 18.517 11.4 26.791 10.02 11.7 44.662 4.192 65.861 4.192 14.962 0 61.568-.693 93.743 12.908 9.274 3.921-2.56 21.9 20.06 28.095 27.149 7.438 33.471-19.339 50.622-26.955 9.354-4.153 22.245-7.577 39.172-7.523z" fill="url(#v)"/><path d="m46.132 394.657h300.386v117.004h-300.386z" fill="none"/><ellipse cx="64.533" cy="120.899" fill="#030a24" rx="4.781" ry="8.848" transform="matrix(.95366445 -.30087225 .30087225 .95366445 -33.384 25.017)"/><path d="m110.742 701.268c-.009 0-.017.01-.027.011h-16.635a4.5 4.5 0 0 0 0 9h16.635v-.006c.01 0 .018.011.027.011.633 0 1.146-2.018 1.146-4.507s-.513-4.509-1.146-4.509z" fill="#030a24"/><path d="m78.181 556.135h.006v-16.635a4.5 4.5 0 0 0 -9 0v16.636h.007s-.007.009-.007.013c0 .5 2.015.9 4.5.9s4.5-.4 4.5-.9c.001-.005-.005-.01-.006-.014z" fill="#030a24"/><path d="m167.513 546.211 34.783 19.848h88.218l-34.783-19.848z" fill="url(#w)"/><path d="m290.514 566.059-3.534-2.017q-1.272 1.006-2.565 2.017z" fill="url(#x)"/><path d="m255.731 546.211h-36.672a53.9 53.9 0 0 0 -3.328 19.848h74.783z" fill="url(#y)"/><path d="m233.513 556.134v-16.634a4.5 4.5 0 0 0 -4.5-4.5 4.5 4.5 0 0 0 -4.5 4.5v16.636c0 .5 2.014.9 4.5.9s4.5-.4 4.5-.9z" fill="#030a24"/><path d="m0 485.336 46.132 26.324v-117.003l-46.132-26.325z" fill="url(#z)"/><path d="m68.994 185.631h.006v-16.631a4.5 4.5 0 0 0 -9 0v16.635h.007s-.007.009-.007.014c0 .494 2.015.895 4.5.895s4.5-.4 4.5-.895c0-.009 0-.013-.006-.018z" fill="#030a24"/><path d="m232.106 198.076v-16.636a4.5 4.5 0 0 0 -9 0v16.636h.007s-.007.008-.007.013c0 .5 2.015.9 4.5.9s4.5-.4 4.5-.9c.006-.005 0-.009 0-.013z" fill="#030a24"/><path d="m215.326 185.631h.005l-.002.006" fill="#030a24"/><path d="m68.364 263.136c5.981-2.75 29.988-14.892 37.746-35.84.033-.088.059-.166.091-.253a27.07 27.07 0 0 0 -4.762-6.108c-2.736 10-12 26.034-43.074 30.846a27.047 27.047 0 0 0 9.999 11.355z" fill="url(#A)"/><ellipse cx="199.471" cy="317.303" fill="#030a24" rx="2.333" ry="4.507"/><path d="m266.555 779.407h-46a9.678 9.678 0 0 1 -9.667-9.667v-31.777h2v31.777a7.675 7.675 0 0 0 7.667 7.667h46z" fill="#030a24"/><circle cx="266.221" cy="777.629" fill="#030a24" r="4.889"/><path d="m217.71 26.324h94.026l-18.036-10.289c-2.7-.1-5.408-.162-8.131-.162a224.365 224.365 0 0 0 -67.859 10.451z" fill="url(#B)"/><path d="m284.164 26.324a34.023 34.023 0 0 0 -5.264-10.345 224.063 224.063 0 0 0 -61.133 10.345z" fill="#ff7bb1"/><path d="m36.372 0 46.132 26.324h229.232l-46.132-26.324z" fill="url(#C)"/></svg>