<svg enable-background="new 0 0 531.431 343.043" height="344" viewBox="0 0 531.431 343.043" width="532" xmlns="http://www.w3.org/2000/svg" xmlns:xlink="http://www.w3.org/1999/xlink"><linearGradient id="a" gradientUnits="userSpaceOnUse" x1="215.5097" x2="531.4423" y1="145.498" y2="145.498"><stop offset="0" stop-color="#65c400"/><stop offset="1" stop-color="#c8ff00"/></linearGradient><linearGradient id="b"><stop offset="0" stop-color="#c8ff00"/><stop offset=".1798" stop-color="#c3fc00"/><stop offset=".3921" stop-color="#b5f400"/><stop offset=".6207" stop-color="#9de500"/><stop offset=".8592" stop-color="#7cd200"/><stop offset="1" stop-color="#65c400"/></linearGradient><linearGradient id="c" gradientTransform="matrix(.9875 -.1577 -.3676 -.954 612.1174 6378.8169)" gradientUnits="userSpaceOnUse" x1="1895.9493" x2="1959.4187" xlink:href="#b" y1="6298.7144" y2="6316.2368"/><linearGradient id="d" gradientTransform="matrix(.9875 -.1577 -.3676 -.954 612.1174 6378.8169)" gradientUnits="userSpaceOnUse" x1="1970.0375" x2="1964.5339" xlink:href="#b" y1="6337.833" y2="6254.0093"/><linearGradient id="e"><stop offset=".1869" stop-color="#65c400"/><stop offset=".5447" stop-color="#97e200"/><stop offset=".8412" stop-color="#bbf700"/><stop offset="1" stop-color="#c8ff00"/></linearGradient><linearGradient id="f" gradientUnits="userSpaceOnUse" x1="300.1145" x2="220.5356" xlink:href="#e" y1="-33.46" y2="65.0663"/><linearGradient id="g" gradientUnits="userSpaceOnUse" x1="120.8077" x2="154.1551" y1="240.5689" y2="168.8215"><stop offset="0" stop-color="#ff4a8b"/><stop offset=".2096" stop-color="#ff4589"/><stop offset=".465" stop-color="#ff3681"/><stop offset=".7429" stop-color="#ff1d76"/><stop offset="1" stop-color="#ff0068"/></linearGradient><linearGradient id="h" gradientTransform="matrix(.9875 -.1577 -.3676 -.954 612.1174 6378.8169)" gradientUnits="userSpaceOnUse" x1="1654.5929" x2="1700.3224" xlink:href="#b" y1="6156.4722" y2="6162.7368"/><linearGradient id="i" gradientTransform="matrix(.9875 -.1577 -.3676 -.954 612.1174 6378.8169)" gradientUnits="userSpaceOnUse" x1="1949.5573" x2="1707.496" xlink:href="#b" y1="6165.9814" y2="6124.9175"/><linearGradient id="j" gradientUnits="userSpaceOnUse" x1="115.8929" x2="18.1245" y1="133.6597" y2="282.207"><stop offset=".1869" stop-color="#65c400"/><stop offset=".2967" stop-color="#7bd100"/><stop offset=".4935" stop-color="#9ce500"/><stop offset=".6813" stop-color="#b4f300"/><stop offset=".8548" stop-color="#c3fc00"/><stop offset="1" stop-color="#c8ff00"/></linearGradient><linearGradient id="k" gradientTransform="matrix(.9875 -.1577 -.3676 -.954 612.1174 6378.8169)" gradientUnits="userSpaceOnUse" x1="1711.3661" x2="1847.7952" y1="6052.2231" y2="6140.7598"><stop offset="0" stop-color="#c8ff00"/><stop offset=".1139" stop-color="#c3fc00"/><stop offset=".2484" stop-color="#b5f400"/><stop offset=".3932" stop-color="#9de500"/><stop offset=".5443" stop-color="#7cd200"/><stop offset=".6335" stop-color="#65c400"/></linearGradient><linearGradient id="l" gradientTransform="matrix(.9875 -.1577 -.3676 -.954 612.1174 6378.8169)" gradientUnits="userSpaceOnUse" x1="1664.3488" x2="1710.0782" xlink:href="#b" y1="6086.4883" y2="6092.7524"/><linearGradient id="m" gradientTransform="matrix(.9875 -.1577 -.3676 -.954 612.1174 6378.8169)" gradientUnits="userSpaceOnUse" x1="1809.6631" x2="1805.6606" xlink:href="#b" y1="6104.9131" y2="6044.2617"/><linearGradient id="n" gradientTransform="matrix(.9875 -.1577 -.3676 -.954 612.1174 6378.8169)" gradientUnits="userSpaceOnUse" x1="1732.1479" x2="1728.1455" xlink:href="#b" y1="6109.6328" y2="6048.9819"/><linearGradient id="o" gradientUnits="userSpaceOnUse" x1="213.4096" x2="115.6412" y1="197.8416" y2="346.3889"><stop offset=".1869" stop-color="#65c400"/><stop offset=".1957" stop-color="#67c500"/><stop offset=".3514" stop-color="#8ada00"/><stop offset=".5096" stop-color="#a5ea00"/><stop offset=".6694" stop-color="#b9f600"/><stop offset=".8316" stop-color="#c4fd00"/><stop offset="1" stop-color="#c8ff00"/></linearGradient><linearGradient id="p" gradientUnits="userSpaceOnUse" x1="165.4123" x2="67.6439" xlink:href="#e" y1="166.2515" y2="314.7989"/><path d="m217.008 272.762c-.724 0-1.361-.525-1.479-1.263-.13-.818.427-1.587 1.245-1.718l297.22-47.475c5.484-.876 9.865-3.721 12.334-8.011 2.556-4.44 2.798-9.909.683-15.399l-61.017-160.118c-4.394-11.402-17.565-19.151-29.361-17.267l-136.109 20.826c-.821.123-1.584-.437-1.71-1.256-.125-.819.437-1.584 1.256-1.71l136.1-20.824c13.109-2.089 27.748 6.5 32.626 19.158l61.016 160.118c2.445 6.346 2.132 12.729-.884 17.969-2.93 5.09-8.065 8.455-14.46 9.477l-297.22 47.475c-.081.012-.161.018-.24.018z" fill="url(#a)"/><g fill="#65c400"><path d="m267.631 39.216 5.101 13.236 27.902-4.457c3.783-.604 5.708-4.057 4.3-7.711-1.408-3.655-5.617-6.127-9.4-5.523z"/><ellipse cx="270.182" cy="45.834" rx="3.469" ry="7.143" transform="matrix(.9071 -.421 .421 .9071 5.8156 118.0107)"/><path d="m182.958 269.97 5.101 13.236 27.902-4.457c3.783-.604 5.708-4.057 4.3-7.711-1.408-3.655-5.617-6.127-9.4-5.523z"/><ellipse cx="185.508" cy="276.588" rx="3.469" ry="7.143" transform="matrix(.9071 -.421 .421 .9071 -99.2056 103.8097)"/></g><path d="m219.45 74.414-17.216 27.868-24.279-63.002 17.216-27.867z" fill="url(#c)"/><path d="m273.688 90.868-71.454 11.414 17.216-27.868 71.454-11.413z" fill="url(#d)"/><path d="m195.171 11.413 71.454-11.413 24.278 63.001-71.453 11.413z" fill="url(#f)"/><path d="m112.814 243.761-11.652 18.862-24.344-63.171 11.653-18.86z" fill="#ff0068"/><path d="m173.237 251.11-72.075 11.513 11.652-18.862 72.075-11.512z" fill="#ff0068"/><path d="m88.471 180.592 72.074-11.513 24.344 63.17-72.075 11.512z" fill="url(#g)"/><path d="m35.996 256.134-11.652 18.862-24.344-63.171 11.652-18.861z" fill="url(#h)"/><path d="m96.418 263.483-72.074 11.513 11.652-18.862 72.075-11.512z" fill="url(#i)"/><path d="m11.652 192.964 72.074-11.512 24.344 63.17-72.074 11.512z" fill="url(#j)"/><path d="m139.038 311.922-11.653 18.861-24.344-63.17 11.653-18.861z" fill="url(#k)"/><path d="m62.18 324.183-11.652 18.86-24.344-63.17 11.652-18.861z" fill="url(#l)"/><path d="m199.46 319.271-72.075 11.512 11.653-18.861 72.074-11.512z" fill="url(#m)"/><path d="m122.602 331.531-72.074 11.512 11.652-18.86 72.075-11.513z" fill="url(#n)"/><path d="m114.694 248.752 72.074-11.512 24.344 63.169-72.074 11.513z" fill="url(#o)"/><path d="m37.836 261.012 72.074-11.512 24.344 63.17-72.074 11.512z" fill="url(#p)"/><path d="m223.284 37.438-3.212-8.336 25.172-4.021 3.212 8.336z" fill="#fff"/><path d="m229.086 52.429-3.213-8.336 39.203-6.261 3.212 8.335z" fill="#fff"/><path d="m145.8 228.864c-12.365 1.975-26.169-6.136-30.772-18.081s1.711-23.27 14.076-25.245 26.169 6.137 30.773 18.082c4.602 11.945-1.712 23.269-14.077 25.244zm-14.123-36.648c-8.553 1.366-12.921 9.2-9.737 17.463 3.184 8.262 12.733 13.873 21.287 12.507 8.553-1.366 12.921-9.2 9.737-17.462-3.185-8.264-12.734-13.874-21.287-12.508z" fill="#fff"/><path d="m116.298 185.093-8.228 1.315 50.535 42.901 8.228-1.314z" fill="#fff"/><ellipse cx="169.249" cy="316.172" fill="#030a24" rx="10.164" ry="4.644" transform="matrix(.9875 -.1577 .1577 .9875 -47.7509 30.6531)"/></svg>